<?xml version="1.0" encoding="UTF-8" standalone="yes"?>
<!DOCTYPE svg PUBLIC "-//W3C//DTD SVG 1.1//EN" "http://www.w3.org/Graphics/SVG/1.1/DTD/svg11.dtd">

<svg width="504" height="171" viewBox="0 0 504 171" xmlns="http://www.w3.org/2000/svg" xmlns:xlink="http://www.w3.org/1999/xlink" version="1.1" baseProfile="full">
    <g transform="scale(1,-1) translate(0,-171)">
        <path d="M 57.805668 4.478516 Q 74.592777 4.478516 86.545902 9.532227 Q 98.499027 14.585938 104.827152 23.902344 Q 111.155277 33.218750 111.155277 45.875000 L 111.155277 45.962891 Q 111.155277 61.255859 101.575199 69.869141 Q 91.995121 78.482422 71.780277 82.349609 L 58.772465 84.810547 Q 48.577153 86.744141 43.918949 89.732422 Q 39.260746 92.720703 39.260746 97.818359 L 39.260746 97.906250 Q 39.260746 101.509766 41.414067 104.366211 Q 43.567387 107.222656 47.698246 108.892578 Q 51.829106 110.562500 57.717777 110.562500 Q 63.518559 110.562500 68.000980 108.892578 Q 72.483402 107.222656 75.208012 104.234375 Q 77.932621 101.246094 78.459965 97.027344 L 78.547855 96.060547 L 108.518558 96.060547 L 108.430668 97.906250 Q 107.903324 109.419922 101.794925 117.945312 Q 95.686527 126.470703 84.524418 131.172852 Q 73.362309 135.875000 57.454106 135.875000 Q 42.952153 135.875000 31.570317 130.909180 Q 20.188481 125.943359 13.684575 116.934570 Q 7.180669 107.925781 7.180669 95.708984 L 7.180669 95.621094 Q 7.180669 81.031250 16.980473 71.846680 Q 26.780278 62.662109 45.588871 59.146484 L 58.596684 56.597656 Q 69.758793 54.488281 74.416996 51.543945 Q 79.075199 48.599609 79.075199 43.238281 L 79.075199 43.150391 Q 79.075199 39.195312 76.526371 36.207031 Q 73.977543 33.218750 69.363285 31.504883 Q 64.749027 29.791016 58.333012 29.791016 Q 52.180668 29.791016 47.170903 31.504883 Q 42.161137 33.218750 38.953129 36.250977 Q 35.745121 39.283203 34.866215 43.414062 L 34.690434 44.292969 L 4.719731 44.292969 L 4.807622 42.710938 Q 5.598637 30.582031 12.146489 22.056641 Q 18.694340 13.531250 30.339848 9.004883 Q 41.985356 4.478516 57.805668 4.478516 Z M 142.532230 6.763672 L 175.579104 6.763672 L 190.608401 71.187500 L 191.223635 71.187500 L 206.428713 6.763672 L 240.002932 6.763672 L 264.700197 102.476562 L 233.850588 102.476562 L 221.721682 34.888672 L 221.106448 34.888672 L 206.340823 102.476562 L 176.545901 102.476562 L 161.956058 34.888672 L 161.340823 34.888672 L 149.211917 102.476562 L 117.659183 102.476562 Z M 273.665041 6.763672 L 304.866212 6.763672 L 304.866212 102.476562 L 273.665041 102.476562 Z M 289.221681 112.759766 Q 295.989259 112.759766 300.559572 117.330078 Q 305.129884 121.900391 305.129884 128.140625 Q 305.129884 134.468750 300.559572 138.995117 Q 295.989259 143.521484 289.221681 143.521484 Q 282.541994 143.521484 277.927736 138.995117 Q 273.313478 134.468750 273.313478 128.140625 Q 273.313478 121.900391 277.927736 117.330078 Q 282.541994 112.759766 289.221681 112.759766 Z M 327.893556 6.763672 L 359.094727 6.763672 L 359.094727 79.625000 L 376.936524 79.625000 L 376.936524 102.476562 L 358.303712 102.476562 L 358.303712 106.607422 Q 358.303712 110.738281 361.160157 113.067383 Q 364.016602 115.396484 370.432618 115.396484 Q 372.190430 115.396484 373.992188 115.264648 Q 375.793946 115.132812 377.024415 114.957031 L 377.024415 134.292969 Q 374.563477 134.820312 370.388673 135.215820 Q 366.213868 135.611328 362.170899 135.611328 Q 343.362306 135.611328 335.627931 128.887695 Q 327.893556 122.164062 327.893556 108.013672 L 327.893556 102.476562 L 315.149415 102.476562 L 315.149415 79.625000 L 327.893556 79.625000 Z M 430.637695 4.742188 Q 435.559570 4.742188 439.163086 5.093750 Q 442.766601 5.445312 445.315430 5.884766 L 445.315430 28.033203 Q 443.997070 27.857422 442.678711 27.725586 Q 441.360351 27.593750 439.426758 27.593750 Q 433.801758 27.593750 430.989258 30.186523 Q 428.176758 32.779297 428.176758 38.931641 L 428.176758 79.625000 L 445.315430 79.625000 L 445.315430 102.476562 L 428.176758 102.476562 L 428.176758 124.537109 L 396.887696 124.537109 L 396.887696 102.476562 L 383.879883 102.476562 L 383.879883 79.625000 L 396.887696 79.625000 L 396.887696 34.712891 Q 396.887696 18.541016 405.105469 11.641602 Q 413.323242 4.742188 430.637695 4.742188 Z M 503.938476 4.742188 Q 517.737304 4.742188 527.712890 9.883789 Q 537.688475 15.025391 543.181639 23.814453 Q 548.674803 32.603516 548.938475 43.765625 L 549.026366 44.292969 L 520.374022 44.292969 L 520.198241 43.414062 Q 519.319335 36.558594 515.232421 32.471680 Q 511.145507 28.384766 504.290038 28.384766 Q 498.840820 28.384766 494.929687 31.416992 Q 491.018554 34.449219 488.953124 40.337891 Q 486.887695 46.226562 486.887695 54.576172 L 486.887695 54.664062 Q 486.887695 63.013672 488.953124 68.858398 Q 491.018554 74.703125 494.929687 77.779297 Q 498.840820 80.855469 504.202148 80.855469 Q 511.057616 80.855469 515.188476 76.636719 Q 519.319335 72.417969 520.198241 65.826172 L 520.286132 64.947266 L 548.938475 64.947266 L 548.938475 65.562500 Q 548.674803 76.988281 543.049803 85.777344 Q 537.424804 94.566406 527.317382 99.532227 Q 517.209960 104.498047 503.674804 104.498047 Q 488.821288 104.498047 477.966796 98.521484 Q 467.112304 92.544922 461.179687 81.382812 Q 455.247070 70.220703 455.247070 54.839844 L 455.247070 54.751953 Q 455.247070 39.195312 461.135742 27.989258 Q 467.024414 16.783203 477.966796 10.762695 Q 488.909179 4.742188 503.938476 4.742188 Z M 560.364256 6.763672 L 591.565428 6.763672 L 591.565428 57.564453 Q 591.565428 64.332031 593.894530 68.946289 Q 596.223631 73.560547 600.749998 75.933594 Q 605.276365 78.306641 611.868162 78.306641 Q 614.680662 78.306641 617.273436 77.867188 Q 619.866209 77.427734 621.799803 76.548828 L 621.799803 103.267578 Q 620.041990 103.882812 617.976561 104.190430 Q 615.911131 104.498047 613.713865 104.498047 Q 605.188475 104.498047 599.695311 99.576172 Q 594.202147 94.654297 592.180662 85.513672 L 591.565428 85.513672 L 591.565428 102.476562 L 560.364256 102.476562 Z M 659.944333 5.445312 Q 666.184568 5.445312 671.370115 7.203125 Q 676.555661 8.960938 680.598630 12.300781 Q 684.641599 15.640625 687.366208 20.298828 L 687.981443 20.298828 L 687.981443 6.763672 L 719.182614 6.763672 L 719.182614 72.154297 Q 719.182614 81.822266 713.865231 89.117188 Q 708.547849 96.412109 698.923825 100.455078 Q 689.299802 104.498047 676.467771 104.498047 Q 663.108396 104.498047 653.484373 100.542969 Q 643.860349 96.587891 638.499021 89.556641 Q 633.137693 82.525391 632.346678 73.121094 L 632.258787 71.978516 L 660.383787 71.978516 L 660.559568 72.857422 Q 661.350583 76.548828 664.954099 79.097656 Q 668.557615 81.646484 674.885740 81.646484 Q 681.301755 81.646484 684.641599 78.614258 Q 687.981443 75.582031 687.981443 70.396484 L 687.981443 41.041016 Q 687.981443 37.085938 685.740232 33.877930 Q 683.499021 30.669922 679.675779 28.868164 Q 675.852536 27.066406 670.842771 27.066406 Q 665.129880 27.066406 661.658201 29.483398 Q 658.186521 31.900391 658.186521 36.382812 L 658.186521 36.470703 Q 658.186521 40.777344 661.438474 43.370117 Q 664.690427 45.962891 671.194333 46.314453 L 704.504880 48.599609 L 704.504880 66.705078 L 666.184568 64.244141 Q 647.727537 63.013672 637.664060 55.499023 Q 627.600584 47.984375 627.600584 34.449219 L 627.600584 34.361328 Q 627.600584 26.011719 631.687498 19.463867 Q 635.774412 12.916016 643.069334 9.180664 Q 650.364255 5.445312 659.944333 5.445312 Z M 741.858395 6.763672 L 773.059567 6.763672 L 773.059567 79.625000 L 790.901363 79.625000 L 790.901363 102.476562 L 772.268551 102.476562 L 772.268551 106.607422 Q 772.268551 110.738281 775.124996 113.067383 Q 777.981442 115.396484 784.397457 115.396484 Q 786.155270 115.396484 787.957027 115.264648 Q 789.758785 115.132812 790.989254 114.957031 L 790.989254 134.292969 Q 788.528316 134.820312 784.353512 135.215820 Q 780.178707 135.611328 776.135738 135.611328 Q 757.327145 135.611328 749.592770 128.887695 Q 741.858395 122.164062 741.858395 108.013672 L 741.858395 102.476562 L 729.114255 102.476562 L 729.114255 79.625000 L 741.858395 79.625000 Z M 844.602535 4.742188 Q 849.524410 4.742188 853.127925 5.093750 Q 856.731441 5.445312 859.280269 5.884766 L 859.280269 28.033203 Q 857.961909 27.857422 856.643550 27.725586 Q 855.325191 27.593750 853.391597 27.593750 Q 847.766597 27.593750 844.954097 30.186523 Q 842.141597 32.779297 842.141597 38.931641 L 842.141597 79.625000 L 859.280269 79.625000 L 859.280269 102.476562 L 842.141597 102.476562 L 842.141597 124.537109 L 810.852535 124.537109 L 810.852535 102.476562 L 797.844723 102.476562 L 797.844723 79.625000 L 810.852535 79.625000 L 810.852535 34.712891 Q 810.852535 18.541016 819.070308 11.641602 Q 827.288082 4.742188 844.602535 4.742188 Z" transform="scale(0.500000,0.500000) translate(72.000000,96.000000)" fill="#df5c43" opacity="1.000000"></path>
        <path d="M 44.000000 338.000000 L 964.000000 338.000000 C 986.091390 338.000000 1004.000000 320.091390 1004.000000 298.000000 L 1004.000000 44.000000 C 1004.000000 21.908610 986.091390 4.000000 964.000000 4.000000 L 44.000000 4.000000 C 21.908610 4.000000 4.000000 21.908610 4.000000 44.000000 L 4.000000 298.000000 C 4.000000 320.091390 21.908610 338.000000 44.000000 338.000000 Z M 44.000000 318.000000 C 32.954305 318.000000 24.000000 309.045695 24.000000 298.000000 L 24.000000 44.000000 C 24.000000 32.954305 32.954305 24.000000 44.000000 24.000000 L 964.000000 24.000000 C 975.045695 24.000000 984.000000 32.954305 984.000000 44.000000 L 984.000000 298.000000 C 984.000000 309.045695 975.045695 318.000000 964.000000 318.000000 L 44.000000 318.000000 Z" transform="scale(0.500000,0.500000) translate(0.000000,0.000000)" fill="#df5c43" opacity="1.000000"></path>
    </g>
</svg>